<svg width="320" height="320" viewBox="0 0 320 320" fill="none" xmlns="http://www.w3.org/2000/svg">
<rect width="320" height="320" fill="#646FAC"/>
<path d="M260.918 12.0909V303H225.69V49.0227H223.986L152.963 96.1818V60.3864L225.69 12.0909H260.918Z" fill="#EEEEEE"/>
<path d="M88.4325 303V172.091H108.546V303H88.4325ZM98.6598 150.273C94.7393 150.273 91.3587 148.938 88.5178 146.267C85.7337 143.597 84.3416 140.386 84.3416 136.636C84.3416 132.886 85.7337 129.676 88.5178 127.006C91.3587 124.335 94.7393 123 98.6598 123C102.58 123 105.933 124.335 108.717 127.006C111.558 129.676 112.978 132.886 112.978 136.636C112.978 140.386 111.558 143.597 108.717 146.267C105.933 148.938 102.58 150.273 98.6598 150.273Z" fill="#EEEEEE"/>
<path d="M172.786 96H151.65C150.4 89.9205 148.212 84.5795 145.087 79.9773C142.019 75.375 138.269 71.5114 133.837 68.3864C129.462 65.2045 124.604 62.8182 119.263 61.2273C113.923 59.6364 108.354 58.8409 102.559 58.8409C91.9908 58.8409 82.4169 61.5114 73.8374 66.8523C65.3146 72.1932 58.5249 80.0625 53.468 90.4602C48.468 100.858 45.968 113.614 45.968 128.727C45.968 143.841 48.468 156.597 53.468 166.994C58.5249 177.392 65.3146 185.261 73.8374 190.602C82.4169 195.943 91.9908 198.614 102.559 198.614C108.354 198.614 113.923 197.818 119.263 196.227C124.604 194.636 129.462 192.278 133.837 189.153C138.269 185.972 142.019 182.08 145.087 177.477C148.212 172.818 150.4 167.477 151.65 161.455H172.786C171.195 170.375 168.298 178.358 164.093 185.403C159.889 192.449 154.661 198.443 148.411 203.386C142.161 208.273 135.144 211.994 127.36 214.551C119.633 217.108 111.366 218.386 102.559 218.386C87.6726 218.386 74.434 214.75 62.843 207.477C51.2521 200.205 42.1328 189.864 35.4851 176.455C28.8374 163.045 25.5135 147.136 25.5135 128.727C25.5135 110.318 28.8374 94.4091 35.4851 81C42.1328 67.5909 51.2521 57.25 62.843 49.9773C74.434 42.7045 87.6726 39.0682 102.559 39.0682C111.366 39.0682 119.633 40.3466 127.36 42.9034C135.144 45.4602 142.161 49.2102 148.411 54.1534C154.661 59.0398 159.889 65.0057 164.093 72.0511C168.298 79.0398 171.195 87.0227 172.786 96Z" fill="#EEEEEE"/>
<path d="M145.591 252.141V303H132.601V190.273H145.591V231.665H146.692C148.673 227.298 151.645 223.83 155.608 221.262C159.608 218.656 164.929 217.354 171.571 217.354C177.332 217.354 182.378 218.51 186.708 220.821C191.038 223.096 194.395 226.601 196.78 231.335C199.202 236.031 200.413 242.013 200.413 249.278V303H187.423V250.159C187.423 243.444 185.68 238.252 182.194 234.582C178.745 230.876 173.956 229.023 167.828 229.023C163.571 229.023 159.755 229.922 156.379 231.72C153.04 233.518 150.398 236.142 148.453 239.591C146.545 243.04 145.591 247.223 145.591 252.141Z" fill="#EEEEEE"/>
</svg>
